<?xml version="1.0" encoding="UTF-8" standalone="no"?>
<!-- Created with Inkscape (http://www.inkscape.org/) -->

<svg
   xmlns:dc="http://purl.org/dc/elements/1.1/"
   xmlns:cc="http://creativecommons.org/ns#"
   xmlns:rdf="http://www.w3.org/1999/02/22-rdf-syntax-ns#"
   xmlns:svg="http://www.w3.org/2000/svg"
   xmlns="http://www.w3.org/2000/svg"
   xmlns:sodipodi="http://sodipodi.sourceforge.net/DTD/sodipodi-0.dtd"
   xmlns:inkscape="http://www.inkscape.org/namespaces/inkscape"
   width="1380.86"
   height="1076.96"
   id="svg5159"
   version="1.1"
   inkscape:version="0.48.4 r9939"
   sodipodi:docname="level5.svg"
   inkscape:export-filename="D:\Projects\drill-baby-drill\levels\level2.png"
   inkscape:export-xdpi="359.98999"
   inkscape:export-ydpi="359.98999">
  <defs
     id="defs5161" />
  <sodipodi:namedview
     id="base"
     pagecolor="#ffffff"
     bordercolor="#666666"
     borderopacity="1.0"
     inkscape:pageopacity="0.0"
     inkscape:pageshadow="2"
     inkscape:zoom="0.49497475"
     inkscape:cx="554.87371"
     inkscape:cy="468.55125"
     inkscape:document-units="px"
     inkscape:current-layer="layer1"
     showgrid="false"
     inkscape:window-width="1920"
     inkscape:window-height="1028"
     inkscape:window-x="-8"
     inkscape:window-y="-8"
     inkscape:window-maximized="1" />
  <metadata
     id="metadata5164">
    <rdf:RDF>
      <cc:Work
         rdf:about="">
        <dc:format>image/svg+xml</dc:format>
        <dc:type
           rdf:resource="http://purl.org/dc/dcmitype/StillImage" />
        <dc:title />
      </cc:Work>
    </rdf:RDF>
  </metadata>
  <g
     inkscape:label="Layer 1"
     inkscape:groupmode="layer"
     id="layer1"
     transform="translate(0,24.597857)">
    <rect
       style="fill:#e3ddc7;fill-opacity:1;fill-rule:nonzero;stroke:none"
       id="rect5131"
       width="1376.2833"
       height="1076.1322"
       x="0"
       y="-24.534697"
       inkscape:export-filename="C:\Users\Markus\level1.png"
       inkscape:export-xdpi="300"
       inkscape:export-ydpi="300" />
    <path
       style="fill:#333333;fill-opacity:1;stroke:none"
       d="m 343.39606,137.12335 c 0,0 38.1424,65.96425 -15.4414,89.6156 -53.58387,23.65129 -141.45352,3.36399 -141.45352,3.36399 0,0 -54.79066,-98.07342 -28.37704,-117.61601 26.41363,-19.542568 174.85072,-42.290058 185.27196,24.63642 z"
       id="path3771"
       inkscape:connector-curvature="0" />
    <path
       style="fill:#333333;stroke:none"
       d="m 40.065403,-24.512856 c 0,0 26.383092,247.869026 22.1618,281.630866 -4.221294,33.76187 1.114367,173.21394 8.501633,197.88607 7.387265,24.67212 -19.054874,173.49437 -19.054874,173.49437 0,0 -2.110653,198.67555 -11.608559,263.60225 -9.497919,64.9265 -12.663893,132.4502 -9.497919,138.9429 3.165973,6.4927 0,20.4176 0,20.4176 l -28.4937317,0 0,-1076.067446 z"
       id="path5133"
       inkscape:connector-curvature="0"
       inkscape:export-filename="C:\Users\Markus\level1.png"
       inkscape:export-xdpi="300"
       inkscape:export-ydpi="300"
       sodipodi:nodetypes="csscsscccc" />
    <path
       inkscape:connector-curvature="0"
       id="path5135"
       d="m 1345.6205,1051.4252 c 0,0 -24.4783,-250.2219 -20.5618,-283.9838 3.9166,-33.76179 31.3323,-258.40803 24.4783,-283.08016 -6.8539,-24.67213 -14.687,-88.30024 -14.687,-88.30024 0,0 1.9583,-198.67555 10.7705,-263.6022 8.8122,-64.926636 11.7496,-132.45030606 8.8122,-138.9430161 -2.9374,-6.4927099 0,-18.0072499 0,-18.0072499 l 26.4366,0 0,1075.952666 z"
       style="fill:#333333;stroke:none"
       inkscape:export-filename="C:\Users\Markus\level1.png"
       inkscape:export-xdpi="300"
       inkscape:export-ydpi="300"
       sodipodi:nodetypes="csscsscccc" />
    <path
       sodipodi:nodetypes="csscsscccc"
       inkscape:export-ydpi="300"
       inkscape:export-xdpi="300"
       inkscape:export-filename="C:\Users\Markus\level1.png"
       inkscape:connector-curvature="0"
       id="path2988"
       d="m 15.415266,1026.7606 c 0,0 310.289814,-17.7788 352.553894,-14.9342 42.2641,2.8446 323.48288,22.7569 354.3682,17.7788 30.88533,-4.978 110.53687,-10.6673 110.53687,-10.6673 0,0 248.70797,1.4223 329.98507,7.8227 81.2771,6.4004 165.8052,8.5339 173.933,6.4004 8.1278,-2.1335 25.5592,0 25.5592,0 l 0,19.2011 -1347.053143,0 z"
       style="fill:#333333;stroke:none" />
    <path
       inkscape:connector-curvature="0"
       id="path2998"
       d="m 464.08763,137.12335 c 0,0 -38.1424,65.96425 15.4414,89.6156 53.58387,23.65129 141.45352,3.36399 141.45352,3.36399 0,0 54.79066,-98.07342 28.37704,-117.61601 C 622.94596,92.944362 474.50887,70.196872 464.08763,137.12335 z"
       style="fill:#000000;stroke:none" />
    <path
       inkscape:connector-curvature="0"
       id="path3000"
       d="m 943.39606,193.45174 c 0,0 38.14239,-65.96425 -15.4414,-89.6156 -53.58387,-23.651288 -141.45352,-3.36399 -141.45352,-3.36399 0,0 -54.79066,98.07342 -28.37704,117.61601 26.41363,19.54257 174.85072,42.29006 185.27196,-24.63642 z"
       style="fill:#000000;stroke:none" />
    <path
       style="fill:#333333;fill-opacity:1;stroke:none"
       d="m 1064.0876,193.45174 c 0,0 -38.1424,-65.96425 15.4414,-89.6156 53.5839,-23.651288 141.4535,-3.36399 141.4535,-3.36399 0,0 54.7907,98.07342 28.377,117.61601 -26.4136,19.54257 -174.8507,42.29006 -185.2719,-24.63642 z"
       id="path3002"
       inkscape:connector-curvature="0" />
    <path
       inkscape:connector-curvature="0"
       id="path3004"
       d="m 343.39606,377.53966 c 0,0 38.1424,65.96425 -15.4414,89.6156 -53.58387,23.65129 -141.45352,3.36399 -141.45352,3.36399 0,0 -54.79066,-98.07342 -28.37704,-117.61601 26.41363,-19.54257 174.85072,-42.29006 185.27196,24.63642 z"
       style="fill:#000000;stroke:none" />
    <path
       style="fill:#333333;fill-opacity:1;stroke:none"
       d="m 464.08763,377.53966 c 0,0 -38.1424,65.96425 15.4414,89.6156 53.58387,23.65129 141.45352,3.36399 141.45352,3.36399 0,0 54.79066,-98.07342 28.37704,-117.61601 -26.41363,-19.54257 -174.85072,-42.29006 -185.27196,24.63642 z"
       id="path3006"
       inkscape:connector-curvature="0" />
    <path
       style="fill:#333333;fill-opacity:1;stroke:none"
       d="m 943.39606,433.86805 c 0,0 38.14239,-65.96425 -15.4414,-89.6156 -53.58387,-23.65129 -141.45352,-3.36399 -141.45352,-3.36399 0,0 -54.79066,98.07342 -28.37704,117.61601 26.41363,19.54257 174.85072,42.29006 185.27196,-24.63642 z"
       id="path3008"
       inkscape:connector-curvature="0" />
    <path
       inkscape:connector-curvature="0"
       id="path3010"
       d="m 1064.0876,433.86805 c 0,0 -38.1424,-65.96425 15.4414,-89.6156 53.5839,-23.65129 141.4535,-3.36399 141.4535,-3.36399 0,0 54.7907,98.07342 28.377,117.61601 -26.4136,19.54257 -174.8507,42.29006 -185.2719,-24.63642 z"
       style="fill:#000000;stroke:none" />
    <path
       style="fill:#000000;stroke:none"
       d="m 343.39606,593.71231 c 0,0 38.1424,65.96425 -15.4414,89.6156 -53.58387,23.65129 -141.45352,3.36399 -141.45352,3.36399 0,0 -54.79066,-98.07342 -28.37704,-117.61601 26.41363,-19.54257 174.85072,-42.29006 185.27196,24.63642 z"
       id="path3012"
       inkscape:connector-curvature="0" />
    <path
       inkscape:connector-curvature="0"
       id="path3014"
       d="m 464.08763,593.71231 c 0,0 -38.1424,65.96425 15.4414,89.6156 53.58387,23.65129 141.45352,3.36399 141.45352,3.36399 0,0 54.79066,-98.07342 28.37704,-117.61601 -26.41363,-19.54257 -174.85072,-42.29006 -185.27196,24.63642 z"
       style="fill:#333333;fill-opacity:1;stroke:none" />
    <path
       inkscape:connector-curvature="0"
       id="path3016"
       d="m 943.39606,650.0407 c 0,0 38.14239,-65.96425 -15.4414,-89.6156 -53.58387,-23.65129 -141.45352,-3.36399 -141.45352,-3.36399 0,0 -54.79066,98.07342 -28.37704,117.61601 26.41363,19.54257 174.85072,42.29006 185.27196,-24.63642 z"
       style="fill:#000000;stroke:none" />
    <path
       style="fill:#333333;fill-opacity:1;stroke:none"
       d="m 1064.0876,650.0407 c 0,0 -38.1424,-65.96425 15.4414,-89.6156 53.5839,-23.65129 141.4535,-3.36399 141.4535,-3.36399 0,0 54.7907,98.07342 28.377,117.61601 -26.4136,19.54257 -174.8507,42.29006 -185.2719,-24.63642 z"
       id="path3018"
       inkscape:connector-curvature="0" />
    <path
       inkscape:connector-curvature="0"
       id="path3020"
       d="m 343.39606,832.10831 c 0,0 38.1424,65.96425 -15.4414,89.6156 -53.58387,23.65129 -141.45352,3.36399 -141.45352,3.36399 0,0 -54.79066,-98.07342 -28.37704,-117.61601 26.41363,-19.54257 174.85072,-42.29006 185.27196,24.63642 z"
       style="fill:#333333;fill-opacity:1;stroke:none" />
    <path
       style="fill:#000000;stroke:none"
       d="m 464.08763,832.10831 c 0,0 -38.1424,65.96425 15.4414,89.6156 53.58387,23.65129 141.45352,3.36399 141.45352,3.36399 0,0 54.79066,-98.07342 28.37704,-117.61601 -26.41363,-19.54257 -174.85072,-42.29006 -185.27196,24.63642 z"
       id="path3022"
       inkscape:connector-curvature="0" />
    <path
       style="fill:#333333;fill-opacity:1;stroke:none"
       d="m 943.39606,888.4367 c 0,0 38.14239,-65.96425 -15.4414,-89.6156 -53.58387,-23.65129 -141.45352,-3.36399 -141.45352,-3.36399 0,0 -54.79066,98.07342 -28.37704,117.61601 26.41363,19.54257 174.85072,42.29006 185.27196,-24.63642 z"
       id="path3024"
       inkscape:connector-curvature="0" />
    <path
       inkscape:connector-curvature="0"
       id="path3026"
       d="m 1064.0876,888.4367 c 0,0 -38.1424,-65.96425 15.4414,-89.6156 53.5839,-23.65129 141.4535,-3.36399 141.4535,-3.36399 0,0 54.7907,98.07342 28.377,117.61601 -26.4136,19.54257 -174.8507,42.29006 -185.2719,-24.63642 z"
       style="fill:#000000;stroke:none" />
  </g>
</svg>
